<?xml version="1.0" encoding="UTF-8" standalone="no"?>
<svg width="8px" height="8px" viewBox="0 0 8 8" version="1.1" xmlns="http://www.w3.org/2000/svg" xmlns:xlink="http://www.w3.org/1999/xlink" xmlns:sketch="http://www.bohemiancoding.com/sketch/ns">
    <!-- Generator: Sketch 3.0.4 (8053) - http://www.bohemiancoding.com/sketch -->
    <title>Fill 102</title>
    <desc>Created with Sketch.</desc>
    <defs></defs>
    <g id="Page-1" stroke="none" stroke-width="1" fill="none" fill-rule="evenodd" sketch:type="MSPage">
        <g id="Tweester-MyFilters" sketch:type="MSArtboardGroup" transform="translate(-242.000000, -326.000000)" fill="#657287">
            <g id="Group" sketch:type="MSLayerGroup">
                <g id="My-Filters" transform="translate(20.000000, 96.000000)" sketch:type="MSShapeGroup">
                    <g id="Deezer-2" transform="translate(0.000000, 216.000000)">
                        <path d="M229.854311,20.4533796 L227.401388,18 L229.854311,15.5466204 C230.048563,15.3533238 230.048563,15.0400843 229.854311,14.8457964 L229.153617,14.1449724 C228.959366,13.9516759 228.646184,13.9516759 228.451933,14.1449724 L226,16.598352 L223.547076,14.1449724 C223.353816,13.9516759 223.040634,13.9516759 222.846383,14.1449724 L222.145689,14.8457964 C221.951437,15.0400843 221.951437,15.3533238 222.145689,15.5466204 L224.598612,18 L222.145689,20.4533796 C221.951437,20.6466762 221.951437,20.9599157 222.145689,21.1542036 L222.846383,21.8550276 C223.040634,22.0483241 223.353816,22.0483241 223.547076,21.8550276 L226,19.401648 L228.451933,21.8550276 C228.646184,22.0483241 228.959366,22.0483241 229.153617,21.8550276 L229.854311,21.1542036 C230.048563,20.9599157 230.048563,20.6466762 229.854311,20.4533796" id="Fill-102"></path>
                    </g>
                </g>
            </g>
        </g>
    </g>
</svg>