<?xml version="1.0" encoding="UTF-8" standalone="no"?>
<svg width="35px" height="36px" viewBox="0 0 35 36" version="1.1" xmlns="http://www.w3.org/2000/svg" xmlns:xlink="http://www.w3.org/1999/xlink" xmlns:sketch="http://www.bohemiancoding.com/sketch/ns">
    <!-- Generator: Sketch 3.0.4 (8053) - http://www.bohemiancoding.com/sketch -->
    <title>mark</title>
    <desc>Created with Sketch.</desc>
    <defs></defs>
    <g id="Page-1" stroke="none" stroke-width="1" fill="none" fill-rule="evenodd" sketch:type="MSPage">
        <g id="Tweester-MyFilters" sketch:type="MSArtboardGroup" transform="translate(-48.000000, -22.000000)" fill="#659FF0">
            <g id="Group" sketch:type="MSLayerGroup">
                <g id="Rectangle-2-+-TWEESTER" transform="translate(44.000000, 20.000000)" sketch:type="MSShapeGroup">
                    <path d="M7.37330392,4.68085106 C6.55081609,4.68085106 5.88405797,5.34192633 5.88405797,6.17021277 L5.88405797,6.17021277 C5.88405797,6.99276452 6.55381907,7.65957447 7.37330392,7.65957447 L33.8151019,7.65957447 C34.6375897,7.65957447 35.3043478,6.9984992 35.3043478,6.17021277 L35.3043478,6.17021277 C35.3043478,5.34766101 34.6345867,4.68085106 33.8151019,4.68085106 L7.37330392,4.68085106 Z M4.01098508,8.93617021 C3.18849725,8.93617021 2.52173913,9.59724548 2.52173913,10.4255319 L2.52173913,10.4255319 C2.52173913,11.2480837 3.19150023,11.9148936 4.01098508,11.9148936 L30.452783,11.9148936 C31.2752709,11.9148936 31.942029,11.2538183 31.942029,10.4255319 L31.942029,10.4255319 C31.942029,9.60298016 31.2722679,8.93617021 30.452783,8.93617021 L4.01098508,8.93617021 Z M7.37224156,13.1914894 C6.55034046,13.1914894 5.88405797,13.8525646 5.88405797,14.6808511 L5.88405797,14.6808511 C5.88405797,15.5034028 6.54872123,16.1702128 7.37224156,16.1702128 L28.772686,16.1702128 C29.5945871,16.1702128 30.2608696,15.5091375 30.2608696,14.6808511 L30.2608696,14.6808511 C30.2608696,13.8582993 29.5962063,13.1914894 28.772686,13.1914894 L7.37224156,13.1914894 Z M12.4220001,17.4468085 C11.5966305,17.4468085 10.9275362,18.1078838 10.9275362,18.9361702 L10.9275362,18.9361702 C10.9275362,19.758722 11.6029252,20.4255319 12.4220001,20.4255319 L30.4475651,20.4255319 C31.2729347,20.4255319 31.942029,19.7644566 31.942029,18.9361702 L31.942029,18.9361702 C31.942029,18.1136185 31.2666401,17.4468085 30.4475651,17.4468085 L12.4220001,17.4468085 Z M16.6202359,21.7021277 C15.7974415,21.7021277 15.1304348,22.3632029 15.1304348,23.1914894 L15.1304348,23.1914894 C15.1304348,24.0140411 15.8008658,24.6808511 16.6202359,24.6808511 L31.2928076,24.6808511 C32.115602,24.6808511 32.7826087,24.0197758 32.7826087,23.1914894 L32.7826087,23.1914894 C32.7826087,22.3689376 32.1121777,21.7021277 31.2928076,21.7021277 L16.6202359,21.7021277 Z M13.2562884,25.9574468 C12.4343934,25.9574468 11.7681159,26.6185221 11.7681159,27.4468085 L11.7681159,27.4468085 C11.7681159,28.2693603 12.4340371,28.9361702 13.2562884,28.9361702 L26.250958,28.9361702 C27.0728529,28.9361702 27.7391304,28.2750949 27.7391304,27.4468085 L27.7391304,27.4468085 C27.7391304,26.6242568 27.0732092,25.9574468 26.250958,25.9574468 L13.2562884,25.9574468 Z M11.570103,30.212766 C10.7509838,30.212766 10.0869565,30.8738412 10.0869565,31.7021277 L10.0869565,31.7021277 C10.0869565,32.5246794 10.7442318,33.1914894 11.570103,33.1914894 L19.1110564,33.1914894 C19.9301756,33.1914894 20.5942029,32.5304141 20.5942029,31.7021277 L20.5942029,31.7021277 C20.5942029,30.8795759 19.9369276,30.212766 19.1110564,30.212766 L11.570103,30.212766 Z M14.1023145,34.4680851 C13.2774116,34.4680851 12.6086957,35.1291604 12.6086957,35.9574468 L12.6086957,35.9574468 C12.6086957,36.7799986 13.283964,37.4468085 14.1023145,37.4468085 L15.3179754,37.4468085 C16.1428783,37.4468085 16.8115942,36.7857332 16.8115942,35.9574468 L16.8115942,35.9574468 C16.8115942,35.1348951 16.1363258,34.4680851 15.3179754,34.4680851 L14.1023145,34.4680851 Z" id="mark" transform="translate(18.913043, 21.063830) rotate(10.000000) translate(-18.913043, -21.063830) "></path>
                </g>
            </g>
        </g>
    </g>
</svg>